<svg width="1920" height="1080" viewBox="0 0 1920 1080" fill="none" xmlns="http://www.w3.org/2000/svg">
<rect width="1920" height="1080" fill="#524B9B"/>
<path d="M77.192 95.44C78.416 95.44 79.3793 95.032 80.082 94.216C80.8073 93.3773 81.17 92.2553 81.17 90.85C81.17 89.4447 80.8073 88.334 80.082 87.518C79.3793 86.6793 78.416 86.26 77.192 86.26H71.174V95.44H77.192ZM66.006 81.84H77.362C79.1073 81.84 80.66 82.2253 82.02 82.996C83.38 83.744 84.434 84.8093 85.182 86.192C85.9527 87.552 86.338 89.1047 86.338 90.85C86.338 92.5953 85.9527 94.1593 85.182 95.542C84.434 96.902 83.38 97.9673 82.02 98.738C80.66 99.486 79.1073 99.86 77.362 99.86H71.174V107.612H66.006V81.84ZM96.4841 103.566C97.6854 103.566 98.6374 103.113 99.3401 102.206C100.043 101.277 100.394 100.019 100.394 98.432C100.394 96.8453 100.043 95.5873 99.3401 94.658C98.6374 93.7287 97.6854 93.264 96.4841 93.264C95.2827 93.264 94.3307 93.7287 93.6281 94.658C92.9254 95.5873 92.5741 96.8453 92.5741 98.432C92.5741 100.019 92.9254 101.277 93.6281 102.206C94.3307 103.113 95.2827 103.566 96.4841 103.566ZM87.4061 98.432C87.4061 96.6187 87.7914 95.0093 88.5621 93.604C89.3327 92.1987 90.3981 91.0993 91.7581 90.306C93.1407 89.5127 94.7161 89.116 96.4841 89.116C98.2521 89.116 99.8161 89.5127 101.176 90.306C102.559 91.0993 103.635 92.1987 104.406 93.604C105.177 95.0093 105.562 96.6187 105.562 98.432C105.562 100.223 105.177 101.821 104.406 103.226C103.635 104.631 102.559 105.731 101.176 106.524C99.8161 107.317 98.2521 107.714 96.4841 107.714C94.7161 107.714 93.1407 107.317 91.7581 106.524C90.3981 105.731 89.3327 104.631 88.5621 103.226C87.7914 101.821 87.4061 100.223 87.4061 98.432ZM113.136 92.074C113.658 91.2127 114.372 90.51 115.278 89.966C116.208 89.3993 117.148 89.116 118.1 89.116V93.604C117.08 93.604 116.185 93.8873 115.414 94.454C114.666 94.998 114.1 95.678 113.714 96.494C113.329 97.2873 113.136 98.058 113.136 98.806V107.612H108.036V89.082H113.136V92.074ZM133.536 106.592C133.4 106.66 133.117 106.796 132.686 107C132.256 107.227 131.746 107.397 131.156 107.51C130.567 107.623 129.876 107.68 129.082 107.68C127.949 107.68 126.929 107.408 126.022 106.864C125.138 106.32 124.447 105.561 123.948 104.586C123.45 103.589 123.2 102.467 123.2 101.22V93.842H119.834V89.422H123.2V83.982H128.368V89.422H133.026V93.842H128.368V101.22C128.368 101.809 128.504 102.297 128.776 102.682C129.071 103.067 129.445 103.26 129.898 103.26C130.51 103.26 131.122 103.056 131.734 102.648L133.536 106.592ZM138.735 107.612V93.944H135.403V89.524H138.735V88.368C138.735 87.0533 139.029 85.852 139.619 84.764C140.231 83.676 141.069 82.8147 142.135 82.18C143.2 81.5453 144.401 81.228 145.739 81.228C146.532 81.228 147.337 81.3413 148.153 81.568C148.969 81.772 149.581 82.0553 149.989 82.418L147.779 86.26C147.212 85.8293 146.645 85.614 146.079 85.614C146.011 85.614 145.807 85.648 145.467 85.716C144.991 85.8293 144.605 86.124 144.311 86.6C144.039 87.076 143.903 87.6653 143.903 88.368V89.524H149.241V93.944H143.903V107.612H138.735ZM159.338 103.566C160.539 103.566 161.491 103.113 162.194 102.206C162.896 101.277 163.248 100.019 163.248 98.432C163.248 96.8453 162.896 95.5873 162.194 94.658C161.491 93.7287 160.539 93.264 159.338 93.264C158.136 93.264 157.184 93.7287 156.482 94.658C155.779 95.5873 155.428 96.8453 155.428 98.432C155.428 100.019 155.779 101.277 156.482 102.206C157.184 103.113 158.136 103.566 159.338 103.566ZM150.26 98.432C150.26 96.6187 150.645 95.0093 151.416 93.604C152.186 92.1987 153.252 91.0993 154.612 90.306C155.994 89.5127 157.57 89.116 159.338 89.116C161.106 89.116 162.67 89.5127 164.03 90.306C165.412 91.0993 166.489 92.1987 167.26 93.604C168.03 95.0093 168.416 96.6187 168.416 98.432C168.416 100.223 168.03 101.821 167.26 103.226C166.489 104.631 165.412 105.731 164.03 106.524C162.67 107.317 161.106 107.714 159.338 107.714C157.57 107.714 155.994 107.317 154.612 106.524C153.252 105.731 152.186 104.631 151.416 103.226C150.645 101.821 150.26 100.223 150.26 98.432ZM175.922 81.84V107.612H170.754V81.84H175.922ZM185.17 89.354V107.612H180.002V89.354H185.17ZM179.9 83.812C179.9 83.0187 180.149 82.3727 180.648 81.874C181.169 81.3753 181.815 81.126 182.586 81.126C183.379 81.126 184.025 81.3753 184.524 81.874C185.023 82.3727 185.272 83.0187 185.272 83.812C185.272 84.5827 185.023 85.2287 184.524 85.75C184.025 86.2487 183.379 86.498 182.586 86.498C181.815 86.498 181.169 86.2487 180.648 85.75C180.149 85.2287 179.9 84.5827 179.9 83.812ZM197.82 103.566C199.021 103.566 199.973 103.113 200.676 102.206C201.379 101.277 201.73 100.019 201.73 98.432C201.73 96.8453 201.379 95.5873 200.676 94.658C199.973 93.7287 199.021 93.264 197.82 93.264C196.619 93.264 195.667 93.7287 194.964 94.658C194.261 95.5873 193.91 96.8453 193.91 98.432C193.91 100.019 194.261 101.277 194.964 102.206C195.667 103.113 196.619 103.566 197.82 103.566ZM188.742 98.432C188.742 96.6187 189.127 95.0093 189.898 93.604C190.669 92.1987 191.734 91.0993 193.094 90.306C194.477 89.5127 196.052 89.116 197.82 89.116C199.588 89.116 201.152 89.5127 202.512 90.306C203.895 91.0993 204.971 92.1987 205.742 93.604C206.513 95.0093 206.898 96.6187 206.898 98.432C206.898 100.223 206.513 101.821 205.742 103.226C204.971 104.631 203.895 105.731 202.512 106.524C201.152 107.317 199.588 107.714 197.82 107.714C196.052 107.714 194.477 107.317 193.094 106.524C191.734 105.731 190.669 104.631 189.898 103.226C189.127 101.821 188.742 100.223 188.742 98.432Z" fill="white"/>
<path d="M1581.62 925.63V932.872H1586.11V935.014H1581.62V942.086H1579.07V925.63H1581.62ZM1558.67 928.452H1566.18V925.392H1568.73V928.452H1576.25V930.458H1558.67V928.452ZM1560.37 936.748C1560.37 935.252 1561 934.062 1562.27 933.178C1563.56 932.294 1565.29 931.852 1567.44 931.852C1569.59 931.852 1571.32 932.294 1572.61 933.178C1573.9 934.062 1574.55 935.252 1574.55 936.748C1574.55 938.244 1573.9 939.434 1572.61 940.318C1571.32 941.179 1569.59 941.61 1567.44 941.61C1565.29 941.61 1563.56 941.179 1562.27 940.318C1561 939.434 1560.37 938.244 1560.37 936.748ZM1562.78 936.748C1562.78 937.655 1563.2 938.38 1564.04 938.924C1564.9 939.468 1566.03 939.74 1567.44 939.74C1568.84 939.74 1569.97 939.468 1570.81 938.924C1571.67 938.38 1572.1 937.655 1572.1 936.748C1572.1 935.841 1571.67 935.116 1570.81 934.572C1569.97 934.028 1568.84 933.756 1567.44 933.756C1566.03 933.756 1564.9 934.028 1564.04 934.572C1563.2 935.116 1562.78 935.841 1562.78 936.748ZM1562.82 943.65H1581.62V950.178H1565.4V953.136H1582.71V955.142H1562.92V948.308H1579.1V945.588H1562.82V943.65ZM1610.91 926.82V928.52C1610.91 929.88 1611.43 931.172 1612.47 932.396C1613.51 933.62 1614.86 934.651 1616.52 935.49C1618.17 936.329 1619.88 936.884 1621.65 937.156L1620.6 939.196C1618.24 938.788 1616.05 937.961 1614.04 936.714C1612.02 935.467 1610.55 933.96 1609.62 932.192C1608.71 933.983 1607.24 935.501 1605.2 936.748C1603.18 937.972 1600.97 938.788 1598.57 939.196L1597.51 937.156C1599.3 936.884 1601.03 936.34 1602.68 935.524C1604.33 934.685 1605.67 933.654 1606.69 932.43C1607.73 931.206 1608.26 929.903 1608.26 928.52V926.82H1610.91ZM1596.12 942.562H1623.01V944.67H1610.77V955.482H1608.26V944.67H1596.12V942.562ZM1639.52 943.208V946.982H1644.96V943.208H1647.34V955.074H1637.1V943.208H1639.52ZM1634.18 933.892C1634.18 932.555 1634.5 931.365 1635.13 930.322C1635.79 929.279 1636.7 928.475 1637.85 927.908C1639.01 927.341 1640.32 927.058 1641.8 927.058C1643.81 927.058 1645.51 927.579 1646.9 928.622C1648.28 929.665 1649.1 931.047 1649.34 932.77H1655.57V925.732H1658.12V941.474H1655.57V934.878H1649.38C1649.15 936.623 1648.34 938.04 1646.93 939.128C1645.53 940.193 1643.81 940.726 1641.8 940.726C1640.32 940.726 1639.01 940.443 1637.85 939.876C1636.7 939.287 1635.79 938.482 1635.13 937.462C1634.5 936.419 1634.18 935.229 1634.18 933.892ZM1636.63 933.892C1636.63 935.275 1637.1 936.408 1638.06 937.292C1639.03 938.176 1640.28 938.618 1641.8 938.618C1643.32 938.618 1644.56 938.176 1645.54 937.292C1646.51 936.408 1647 935.275 1647 933.892C1647 932.509 1646.51 931.387 1645.54 930.526C1644.56 929.642 1643.32 929.2 1641.8 929.2C1640.28 929.2 1639.03 929.642 1638.06 930.526C1637.1 931.387 1636.63 932.509 1636.63 933.892ZM1644.96 953.068V948.92H1639.52V953.068H1644.96ZM1647.78 953.374C1649.48 952.649 1650.81 951.561 1651.76 950.11C1652.73 948.637 1653.22 947.107 1653.22 945.52V943.004H1655.7V945.52C1655.7 947.175 1656.18 948.727 1657.13 950.178C1658.11 951.629 1659.45 952.694 1661.18 953.374L1659.88 955.312C1658.57 954.745 1657.46 953.975 1656.55 953C1655.65 952.025 1654.95 950.892 1654.48 949.6C1653.98 950.869 1653.28 952.003 1652.37 953C1651.46 953.975 1650.36 954.745 1649.07 955.312L1647.78 953.374ZM1669.58 926.82V934.776H1687.22V936.85H1667.06V926.82H1669.58ZM1663.39 940.93H1690.35V943.038H1663.39V940.93ZM1666.89 946.064H1669.41V952.66H1687.39V954.768H1666.89V946.064ZM1725.35 925.732V945.928H1722.8V936.306H1716.27V934.164H1722.8V925.732H1725.35ZM1701.45 941.916C1705.03 940.783 1707.85 939.207 1709.92 937.19C1712 935.173 1713.17 932.838 1713.42 930.186H1702.88V928.078H1716.17C1716.17 931.841 1714.98 935.082 1712.6 937.802C1710.22 940.499 1706.88 942.551 1702.57 943.956L1701.45 941.916ZM1704.54 953.374C1706.31 953.057 1707.96 952.49 1709.47 951.674C1710.99 950.858 1712.22 949.849 1713.15 948.648C1714.08 947.424 1714.54 946.109 1714.54 944.704V943.31H1717.06V944.704C1717.06 946.109 1717.51 947.413 1718.42 948.614C1719.35 949.793 1720.57 950.79 1722.09 951.606C1723.61 952.422 1725.25 952.989 1727.02 953.306L1725.96 955.312C1723.7 954.881 1721.65 954.088 1719.81 952.932C1718 951.753 1716.66 950.314 1715.8 948.614C1714.94 950.337 1713.59 951.787 1711.75 952.966C1709.92 954.145 1707.85 954.961 1705.56 955.414L1704.54 953.374ZM1744.09 926.276C1747.37 926.276 1749.93 926.718 1751.77 927.602C1753.61 928.486 1754.52 929.755 1754.52 931.41C1754.52 933.065 1753.61 934.345 1751.77 935.252C1749.93 936.136 1747.37 936.578 1744.09 936.578C1740.8 936.578 1738.24 936.136 1736.4 935.252C1734.57 934.345 1733.65 933.065 1733.65 931.41C1733.65 929.755 1734.57 928.486 1736.4 927.602C1738.24 926.718 1740.8 926.276 1744.09 926.276ZM1730.66 938.652H1757.52V940.726H1730.66V938.652ZM1733.92 943.344H1754.05V949.94H1736.5V953.136H1754.97V955.142H1734.02V948.07H1751.57V945.316H1733.92V943.344ZM1736.27 931.41C1736.27 932.43 1736.95 933.223 1738.31 933.79C1739.69 934.357 1741.62 934.64 1744.09 934.64C1746.56 934.64 1748.47 934.357 1749.83 933.79C1751.22 933.223 1751.91 932.43 1751.91 931.41C1751.91 930.39 1751.22 929.597 1749.83 929.03C1748.45 928.463 1746.53 928.18 1744.09 928.18C1741.64 928.18 1739.72 928.463 1738.34 929.03C1736.96 929.597 1736.27 930.39 1736.27 931.41ZM1795.07 938.482V940.556H1768.21V938.482H1795.07ZM1769.67 934.946C1771.44 934.787 1773.11 934.436 1774.67 933.892C1776.26 933.325 1777.55 932.623 1778.55 931.784C1779.57 930.923 1780.11 929.982 1780.18 928.962H1770.69V926.888H1792.66V928.962H1783.14C1783.2 929.982 1783.74 930.923 1784.73 931.784C1785.75 932.623 1787.05 933.325 1788.61 933.892C1790.2 934.436 1791.87 934.787 1793.64 934.946L1792.79 936.918C1790.3 936.646 1788.03 936.045 1785.99 935.116C1783.97 934.187 1782.53 932.997 1781.67 931.546C1780.81 932.997 1779.36 934.187 1777.32 935.116C1775.3 936.045 1773.04 936.646 1770.52 936.918L1769.67 934.946ZM1771.47 943.378H1791.6V950.042H1774.06V953.136H1792.52V955.142H1771.58V948.138H1789.12V945.35H1771.47V943.378ZM1822.27 925.732V955.482H1819.72V925.732H1822.27ZM1798.3 947.832C1802.24 945.951 1805.26 943.593 1807.34 940.76C1809.45 937.904 1810.64 934.663 1810.91 931.036H1799.63V928.928H1813.5C1813.5 933.416 1812.38 937.451 1810.13 941.032C1807.91 944.591 1804.42 947.537 1799.66 949.872L1798.3 947.832ZM1844.24 928.792V930.934H1837.57V934.946C1837.57 936.487 1837.91 938.063 1838.59 939.672C1839.29 941.281 1840.23 942.743 1841.41 944.058C1842.59 945.35 1843.88 946.325 1845.29 946.982L1843.83 949.022C1842.17 948.206 1840.68 946.971 1839.34 945.316C1838 943.661 1837 941.837 1836.35 939.842C1835.67 941.995 1834.64 943.967 1833.25 945.758C1831.87 947.549 1830.35 948.875 1828.7 949.736L1827.2 947.73C1828.58 947.05 1829.88 946.019 1831.08 944.636C1832.3 943.253 1833.28 941.701 1834 939.978C1834.73 938.255 1835.09 936.578 1835.09 934.946V930.934H1828.22V928.792H1844.24ZM1847.91 925.732H1850.46V937.836H1855.39V939.978H1850.46V955.482H1847.91V925.732ZM1516.34 995.884C1513.87 995.884 1511.67 995.329 1509.74 994.218C1507.82 993.085 1506.31 991.521 1505.22 989.526C1504.15 987.531 1503.62 985.265 1503.62 982.726C1503.62 980.187 1504.15 977.921 1505.22 975.926C1506.31 973.931 1507.8 972.379 1509.71 971.268C1511.63 970.135 1513.82 969.568 1516.27 969.568C1518.02 969.568 1519.66 969.908 1521.2 970.588C1522.76 971.245 1524.14 972.186 1525.31 973.41L1522.02 977.048C1521.43 976.141 1520.6 975.416 1519.53 974.872C1518.49 974.328 1517.39 974.056 1516.24 974.056C1513.95 974.056 1512.13 974.838 1510.8 976.402C1509.46 977.943 1508.79 980.051 1508.79 982.726C1508.79 985.401 1509.46 987.52 1510.8 989.084C1512.16 990.625 1513.99 991.396 1516.3 991.396C1517.55 991.396 1518.63 991.135 1519.53 990.614C1520.46 990.07 1521.21 989.401 1521.78 988.608L1525.31 992.042C1524.09 993.311 1522.75 994.275 1521.3 994.932C1519.85 995.589 1518.2 995.907 1516.34 995.884ZM1550.16 995.612H1544.99V984.596H1533.57V995.612H1528.4V969.84H1533.57V980.176H1544.99V969.84H1550.16V995.612ZM1566.39 991.396C1568.81 991.396 1570.73 990.625 1572.13 989.084C1573.56 987.52 1574.27 985.401 1574.27 982.726C1574.27 980.051 1573.56 977.943 1572.13 976.402C1570.73 974.838 1568.81 974.056 1566.39 974.056C1563.96 974.056 1562.03 974.838 1560.61 976.402C1559.2 977.943 1558.5 980.051 1558.5 982.726C1558.5 985.401 1559.2 987.52 1560.61 989.084C1562.03 990.625 1563.96 991.396 1566.39 991.396ZM1553.33 982.726C1553.33 980.187 1553.88 977.921 1555 975.926C1556.11 973.931 1557.65 972.379 1559.62 971.268C1561.61 970.135 1563.87 969.568 1566.39 969.568C1568.9 969.568 1571.15 970.135 1573.12 971.268C1575.11 972.379 1576.66 973.931 1577.78 975.926C1578.89 977.921 1579.44 980.187 1579.44 982.726C1579.44 985.265 1578.89 987.531 1577.78 989.526C1576.66 991.521 1575.11 993.085 1573.12 994.218C1571.15 995.329 1568.9 995.884 1566.39 995.884C1563.87 995.884 1561.61 995.329 1559.62 994.218C1557.65 993.085 1556.11 991.521 1555 989.526C1553.88 987.531 1553.33 985.265 1553.33 982.726ZM1587.79 969.84V995.612H1582.62V969.84H1587.79ZM1616.04 987.384C1616.04 989.016 1615.65 990.478 1614.88 991.77C1614.14 993.039 1613.09 994.037 1611.76 994.762C1610.42 995.487 1608.89 995.85 1607.17 995.85C1605.44 995.85 1603.81 995.397 1602.27 994.49C1600.75 993.561 1599.65 992.359 1598.97 990.886L1603.56 988.608C1603.92 989.424 1604.45 990.093 1605.13 990.614C1605.83 991.113 1606.54 991.362 1607.27 991.362C1608.33 991.362 1609.19 990.988 1609.85 990.24C1610.53 989.469 1610.87 988.495 1610.87 987.316V969.84H1616.04V987.384ZM1638.87 974.26H1625.1V980.142H1637.07V984.562H1625.1V991.192H1638.87V995.612H1619.93V969.84H1638.87V974.26ZM1668.61 995.612H1663.04L1660.38 989.152H1649.57L1646.89 995.612H1641.28L1652.02 969.84H1658.11L1668.61 995.612ZM1658.58 984.732L1655.05 976.028L1651.41 984.732H1658.58ZM1676.54 978.102V995.612H1671.37V969.84H1677.22L1685.79 982.556L1694.36 969.84H1700.2V995.612H1695.04V978.102L1685.79 990.92L1676.54 978.102ZM1709.58 969.84V995.612H1704.41V969.84H1709.58ZM1736.86 995.612H1731.01L1718.74 977.864V995.612H1713.57V969.84H1719.42L1731.69 987.69V969.84H1736.86V995.612ZM1754.89 969.704V995.816H1750.74V969.704H1754.89ZM1780.42 984.222V988.132C1782.84 987.996 1785.03 987.781 1786.98 987.486L1787.35 991.328C1784.47 991.917 1781.53 992.303 1778.51 992.484C1775.52 992.643 1772.14 992.733 1768.38 992.756L1767.8 988.472C1770.88 988.472 1773.31 988.438 1775.08 988.37V984.222H1780.42ZM1768.24 980.992C1770.4 980.493 1772.02 979.677 1773.11 978.544C1774.19 977.411 1774.82 976.13 1774.98 974.702H1769.26V970.554H1775.08V967.426H1780.42V970.554H1786.23V974.702H1780.52C1780.7 976.062 1781.33 977.297 1782.42 978.408C1783.53 979.496 1785.14 980.289 1787.25 980.788L1784.9 984.834C1781.66 984.063 1779.29 982.431 1777.8 979.938C1776.37 982.545 1773.98 984.267 1770.62 985.106L1768.24 980.992ZM1788.51 967.086H1793.81V998.162H1788.51V967.086ZM1824.41 967.12V998.06H1819.38V982.93H1817.71V996.768H1812.78V988.234L1810.51 991.294C1808.13 990.047 1806.35 987.939 1805.17 984.97C1804.1 988.438 1802.32 990.931 1799.83 992.45L1796.67 988.404C1798.82 987.112 1800.32 985.253 1801.16 982.828C1802 980.403 1802.41 977.547 1802.41 974.26H1797.79V969.976H1811.7V974.26H1807.58C1807.58 977.116 1807.97 979.632 1808.74 981.808C1809.51 983.961 1810.86 985.65 1812.78 986.874V967.528H1817.71V978.68H1819.38V967.12H1824.41ZM1843.96 969.432V984.732H1828.66V969.432H1843.96ZM1832.03 987.112H1837.37V993.402H1853.76V997.618H1832.03V987.112ZM1838.76 980.55V973.614H1833.9V980.55H1838.76ZM1847.7 967.154H1853.04V989.016H1847.7V967.154Z" fill="white"/>
<g opacity="0.03" clip-path="url(#clip0_1_3)">
<path d="M1424.9 565.052C1423.62 568.393 1424.28 572.861 1426.39 574.951C1432.44 581.009 1444 576.935 1444 568.733C1444 559.28 1428.28 556.243 1424.9 565.052ZM724.918 607.079C724.918 608.723 720.63 615.835 715.396 622.875C710.162 629.915 702.373 643.728 698.104 653.574C689.708 672.943 682.562 671.156 686.028 650.554C687.064 644.425 688.457 633.543 689.136 626.395C690.011 617.175 692.959 612.047 699.265 608.795C709.34 603.595 724.882 602.558 724.882 607.097M836.372 602.147C836.372 625.949 851.02 660.828 864.811 669.87C869.599 673.015 873.529 677.107 873.529 678.983C873.529 687.739 826.636 722.368 795.963 736.288C754.447 755.122 711.734 744.257 695.514 710.771C686.064 691.241 685.796 684.63 694.084 676.321C702.927 667.476 732.314 619.284 732.314 613.619C732.314 604.613 745.569 597.251 769.471 592.963C782.762 590.586 800.322 587.298 808.486 585.672C836.872 580.008 836.354 579.704 836.354 602.147M955.275 570.43C955.275 572.36 953.435 575.076 951.166 576.47C948.915 577.864 944.306 585.101 940.948 592.534C934.303 607.24 889.321 671.014 885.587 671.014C881.336 671.014 866.098 654.878 866.098 650.375C866.098 647.909 863.865 644.05 861.131 641.78C854.986 636.67 846.304 601.754 848.073 589.21C849.323 580.33 850.985 579.776 889.357 575.559C911.347 573.146 932.248 570.413 935.803 569.483C947.343 566.464 955.293 566.839 955.293 570.43M1107.16 555.278C1110.96 559.084 1115.23 568.322 1116.62 575.809C1119.7 592.177 1112.5 604.024 1089.26 620.838C1080.79 626.967 1067.8 636.616 1060.44 642.263C1023 670.978 969.423 688.078 927.782 684.629C899.896 682.324 890.16 677.178 899.682 669.834C911.169 660.989 941.109 618.408 953.524 593.285C960.545 579.097 967.565 566.696 969.137 565.749C970.71 564.802 992.915 562.05 1018.46 559.638C1044.01 557.225 1070.77 553.866 1077.91 552.186C1097.51 547.558 1099.63 547.791 1107.14 555.278M970.156 536.373C970.156 537.963 967.726 542.716 964.779 546.951C960.205 553.473 952.47 555.367 913.687 559.495C888.535 562.157 864.15 565.749 859.47 567.464C853.2 569.769 850.395 569.09 848.787 564.891C847.59 561.764 847.626 558.172 848.877 556.94C851.824 553.991 946.664 534.246 959.938 533.835C965.565 533.657 970.156 534.818 970.156 536.408M1053.38 532.799C1061.35 534.21 1068.03 537.052 1068.25 539.089C1068.75 543.824 980.678 552.365 975.997 548.041C973.925 546.111 975.265 541.84 979.356 537.32C985.019 531.066 990.61 529.833 1012.53 530.011C1027.03 530.136 1045.42 531.387 1053.37 532.799M976.748 453.801C981.321 457.018 985.001 463.504 985.001 468.382C985.001 480.926 976.926 516.092 973.05 520.487C971.245 522.524 962.438 524.401 953.489 524.651C934.535 525.169 870.188 540.197 863.15 545.754C852.36 554.259 852.039 542.001 862.471 519.63C886.695 467.632 946.968 432.913 976.765 453.801M999.882 171.386C999.882 173.441 979.91 198.85 965.243 215.45C957.972 223.688 927.461 269.932 887.874 332.776C862.221 373.463 848.412 396.478 803.073 474.029C788.139 499.581 772.311 526.348 767.917 533.496C763.522 540.643 756.948 553.33 753.286 561.657C745.944 578.436 733.886 587.227 712.824 591.176C697.532 594.053 696.353 592.177 703.07 575.487C705.375 569.769 708.537 561.746 710.126 557.654C719.166 534.318 756.948 458.501 771.793 433.931C812.702 366.209 875.065 285.317 936.714 219.989C970.71 183.966 999.882 161.522 999.882 171.368M990.592 159.95C972.889 168.027 943.896 194.24 910.258 232.568C853.021 297.789 841.981 310.976 837.426 319.589C834.925 324.307 830.334 329.131 827.207 330.328C824.081 331.526 821.527 334.295 821.527 336.493C821.527 340.585 814.435 351.288 791.801 381.415C784.655 390.939 776.027 403.519 772.669 409.397C769.292 415.276 759.806 431.34 751.589 445.099C743.371 458.858 727.973 488.967 717.379 512C706.786 535.032 696.621 556.797 694.799 560.352C692.977 563.908 691.476 570.824 691.476 575.737C691.476 593.124 680.883 599.771 633.883 611.886C561.89 630.434 534.898 636.759 507.423 641.512C483.306 645.694 476.143 649.357 476 657.594C475.857 665.653 575.378 645.944 646.03 623.912C663.001 618.622 677.864 615.245 679.043 616.442C680.222 617.622 679.329 623.947 677.042 630.487C674.756 637.027 672.898 654.556 672.898 669.441C672.898 688.543 671.254 698.138 667.324 702.069C664.252 705.143 661.751 708.395 661.751 709.306C661.751 710.217 648.174 733.34 631.578 760.679C605.55 803.564 585.971 841.267 560.122 898.304C553.262 913.439 552.333 922.301 557.264 925.357C562.051 928.323 566.803 921.194 578.129 894.015C593.456 857.259 618.805 807.799 644.762 764.074C657.624 742.399 669.325 720.939 670.772 716.4C674.434 704.839 679.365 706.143 685.367 720.242C688.189 726.889 694.495 735.806 699.354 740.058C710.734 750.029 738.441 760.196 754.197 760.196C786.406 760.196 831.959 737.199 868.902 702.284L885.605 686.506L900.486 691.759C918.225 698.013 958.723 698.585 979.463 692.885C1001.65 686.774 1045.15 665.671 1058.23 654.664C1064.55 649.339 1071.39 644.979 1073.41 644.979C1079.98 644.979 1119.16 610.51 1124.64 599.896C1131.58 586.494 1131.41 572.557 1124.2 561.55C1121.02 556.707 1119.77 551.936 1121.41 550.953C1124.16 549.327 1146.92 547.005 1258.18 537.087C1280.67 535.086 1328.01 531.763 1363.4 529.725C1423.21 526.277 1444.84 522.274 1440.61 515.431C1439.66 513.894 1424.14 513.876 1406.13 515.359C1388.1 516.86 1339.92 519.898 1299.05 522.113C1258.18 524.329 1197.39 528.957 1163.95 532.388C1107.91 538.142 1101.81 538.16 1085.9 532.656C1057.4 522.775 1025.43 517.61 1006.54 519.844C985.965 522.274 986.019 522.399 994.415 489.628C1000.83 464.612 998.238 452.425 984.447 442.758C972.567 434.431 945.057 435.307 920.279 444.777C888.356 457 852.896 496.454 843.767 529.922C841.284 539.017 838.301 548.97 837.122 552.043C835.943 555.117 834.889 560.906 834.764 564.927C834.585 570.502 831.691 572.378 822.456 572.861C808.593 573.575 806.36 569.001 818.74 565.248C824.367 563.533 825.475 562.032 822.098 560.674C819.347 559.548 813.488 560.495 809.093 562.783C798.018 568.536 756.984 581.652 755.323 579.99C754.572 579.24 761.718 566.374 771.221 551.4C780.725 536.426 800.251 504.102 814.613 479.568C864.615 394.209 871.778 382.38 910.025 321.59C930.408 289.194 970.763 229.441 993.861 197.385C1020.66 160.218 1019.5 146.745 990.61 159.932" fill="white"/>
</g>
<path d="M338.4 627.3C331 627.3 323.7 626.4 316.5 624.6C309.5 622.8 303.1 619.7 297.3 615.3C292.3 611.1 288.7 605.1 286.5 597.3C284.5 589.5 283.5 581.9 283.5 574.5C283.5 571.3 283.7 568.3 284.1 565.5C284.5 562.5 284.9 560 285.3 558C288.7 543.2 294.9 529.4 303.9 516.6C313.1 503.6 324.8 490.6 339 477.6C340.6 476 342.2 474.5 343.8 473.1C345.4 471.7 347 470.3 348.6 468.9C349.6 468.3 350.6 468 351.6 468C352.6 467.8 353.5 467.7 354.3 467.7C355.3 467.7 356.2 467.7 357 467.7C357.8 467.5 358.4 467.2 358.8 466.8C359.8 466.2 360.4 464.8 360.6 462.6C361 460.4 361.8 458.8 363 457.8C368.8 453.6 375.6 450.1 383.4 447.3C391.2 444.5 398.4 441.8 405 439.2C410.6 437 417.4 435.3 425.4 434.1C433.6 432.9 441.5 432.3 449.1 432.3C456.9 432.3 463.3 432.9 468.3 434.1C472.7 435.1 475.6 436.7 477 438.9C478.6 440.9 479.6 443.1 480 445.5C480.4 447.9 480.9 450.2 481.5 452.4C481.7 453 481.8 453.6 481.8 454.2C482 454.8 482.1 455.5 482.1 456.3C482.1 459.5 481.1 462.3 479.1 464.7C477.3 467.1 475.4 468.3 473.4 468.3C471.2 468.3 469.6 466.8 468.6 463.8C468.2 462.8 467.5 461.5 466.5 459.9C465.7 458.3 465.1 456.9 464.7 455.7C463.7 453.5 462.2 452.1 460.2 451.5C458.2 450.7 455.6 450.3 452.4 450.3H452.1C450.3 450.3 448.3 450.1 446.1 449.7C443.9 449.3 441.5 449.1 438.9 449.1C435.1 449.1 431 449.5 426.6 450.3C422.2 451.1 417.5 452.6 412.5 454.8C397.1 461.6 382.3 469.1 368.1 477.3C354.1 485.3 342.4 494.6 333 505.2C331.8 506.8 331 507.9 330.6 508.5C330.4 509.1 329.6 510.3 328.2 512.1C327.2 513.3 325.7 515 323.7 517.2C321.7 519.4 320.3 521.1 319.5 522.3C316.5 526.5 314.2 531.1 312.6 536.1C311 540.9 309.7 545.6 308.7 550.2C307.7 554.8 306.5 558.6 305.1 561.6C303.9 564.2 303 566.9 302.4 569.7C302 572.3 301.8 575 301.8 577.8C301.8 582.6 302.4 587.2 303.6 591.6C305 596 306.5 599.7 308.1 602.7C311.3 608.5 316.2 612.4 322.8 614.4C329.6 616.2 336.4 617.1 343.2 617.1C348 617.1 352.4 616.8 356.4 616.2C360.6 615.6 363.6 615.2 365.4 615C366.8 614.6 369.3 613.6 372.9 612C376.5 610.2 379 609.2 380.4 609C382.2 608.6 384.4 608.1 387 607.5C389.6 606.9 391.9 606.2 393.9 605.4C403.7 601.8 411.6 597.6 417.6 592.8C423.8 588 429.9 582.9 435.9 577.5C441.1 572.9 445.3 569.7 448.5 567.9C451.9 565.9 454.3 564.9 455.7 564.9C457.1 564.9 457.8 565.5 457.8 566.7C457.8 567.9 456.9 569.6 455.1 571.8C453.5 574 451 576.2 447.6 578.4C440 583.8 432.3 589.9 424.5 596.7C416.7 603.5 408.1 608.8 398.7 612.6C396.1 613.6 393.7 614.9 391.5 616.5C389.3 618.1 386.8 619.3 384 620.1C380.8 620.9 374.9 622.3 366.3 624.3C357.7 626.3 348.4 627.3 338.4 627.3ZM457.324 621C455.524 620.4 454.624 618.3 454.624 614.7C454.624 612.5 454.924 610 455.524 607.2C456.324 604.4 457.424 601.1 458.824 597.3V598.2C459.224 598.2 459.624 597.5 460.024 596.1C460.424 594.7 460.524 593.9 460.324 593.7C460.524 592.5 461.324 591.2 462.724 589.8C464.324 588.2 465.024 587.3 464.824 587.1V586.8C465.224 586 465.224 585.5 464.824 585.3C464.424 585.1 464.524 584.3 465.124 582.9C467.324 578.3 469.124 575.2 470.524 573.6C471.924 571.8 473.424 569.3 475.024 566.1V566.7C475.224 566.7 475.424 565.9 475.624 564.3C476.024 562.7 476.524 561.4 477.124 560.4V561C477.324 560.2 477.724 559.5 478.324 558.9C479.124 558.1 479.624 557.6 479.824 557.4C481.624 554.2 482.824 551.8 483.424 550.2C484.224 548.6 485.024 547.1 485.824 545.7C486.824 544.1 488.424 541.9 490.624 539.1H490.324C491.124 538.1 492.224 536.4 493.624 534C495.224 531.6 496.624 529.6 497.824 528C499.224 526.2 499.924 525.7 499.924 526.5V526.8C499.924 527.4 500.724 526.5 502.324 524.1C503.924 521.7 505.824 518.8 508.024 515.4C510.224 511.8 512.224 508.6 514.024 505.8C515.824 502.8 516.924 501 517.324 500.4V500.7C517.724 500.1 518.524 498.8 519.724 496.8C521.124 494.6 521.924 493.4 522.124 493.2H521.824C523.824 490 525.124 487.6 525.724 486C526.524 484.2 527.324 482.5 528.124 480.9C529.124 479.1 530.824 476.7 533.224 473.7L543.724 460.2C544.724 459.2 545.924 457.5 547.324 455.1C548.924 452.5 550.524 450.8 552.124 450C554.924 448.6 558.324 447.3 562.324 446.1C566.524 444.9 570.224 444.3 573.424 444.3C575.624 444.3 577.424 444.7 578.824 445.5C580.424 446.1 581.324 447.4 581.524 449.4C581.324 452.4 580.224 455.9 578.224 459.9C576.224 463.7 573.224 467.5 569.224 471.3C566.824 473.3 563.924 474.7 560.524 475.5C557.124 476.1 554.724 477.5 553.324 479.7H553.624C551.424 482.9 548.624 486.7 545.224 491.1C542.024 495.3 539.624 498.5 538.024 500.7C536.424 502.7 534.624 504.5 532.624 506.1C530.624 507.7 529.024 509.5 527.824 511.5C524.824 515.5 522.624 518.9 521.224 521.7C519.824 524.5 518.424 527.3 517.024 530.1C515.824 532.7 513.624 535.7 510.424 539.1C504.624 545.3 500.724 550.4 498.724 554.4C496.724 558.2 495.524 562.2 495.124 566.4C495.924 565.4 496.824 564.5 497.824 563.7C502.224 559.3 508.324 554.5 516.124 549.3C524.124 544.1 532.324 539 540.724 534H541.324C541.524 534 542.524 533.5 544.324 532.5C546.324 531.5 548.424 530.3 550.624 528.9C553.024 527.3 555.024 526 556.624 525C558.224 523.8 558.724 523.2 558.124 523.2H557.824C560.024 521.8 563.824 520.2 569.224 518.4C578.224 515.4 586.024 513.9 592.624 513.9C597.024 513.9 600.224 514.6 602.224 516C604.024 517.8 604.924 520.3 604.924 523.5C604.924 525.9 604.324 528.8 603.124 532.2V531.6C602.924 531.6 602.524 532.4 601.924 534C601.324 535.4 600.624 536.6 599.824 537.6C599.624 538.4 598.924 539.7 597.724 541.5C596.524 543.1 595.924 543.9 595.924 543.9V543.6C594.924 546 593.924 547.8 592.924 549C591.924 550 590.724 551.4 589.324 553.2C587.524 555.6 585.124 559.1 582.124 563.7C579.324 568.3 576.524 573.1 573.724 578.1C571.124 583.1 569.324 587.8 568.324 592.2C568.124 593.6 567.224 595.4 565.624 597.6C564.224 599.8 563.624 601.4 563.824 602.4V602.7C563.824 603.1 564.224 603.6 565.024 604.2C565.824 604.8 566.324 605.3 566.524 605.7C567.124 606.5 567.424 607.5 567.424 608.7C567.424 610.5 566.624 612.3 565.024 614.1C563.424 615.9 560.824 616.8 557.224 616.8C554.624 616.8 552.924 616.2 552.124 615C551.524 613.8 550.724 612.5 549.724 611.1V608.1L548.524 608.4H547.924C547.124 608.4 546.424 607.9 545.824 606.9V606.6C545.824 605.8 545.624 604.7 545.224 603.3C545.024 601.7 544.924 600.5 544.924 599.7C544.924 598.3 545.524 596.2 546.724 593.4C547.924 590.6 549.224 587.8 550.624 585C552.024 582 553.024 579.8 553.624 578.4C554.424 576 556.424 572.7 559.624 568.5C562.824 564.3 566.224 560 569.824 555.6C573.424 551 576.124 547.2 577.924 544.2C578.924 542.4 579.624 540.8 580.024 539.4C580.424 537.8 580.624 536.4 580.624 535.2C580.624 533 579.924 531.4 578.524 530.4C577.324 529.2 575.724 528.5 573.724 528.3C572.924 528.3 571.524 528.5 569.524 528.9C567.724 529.1 565.824 529.6 563.824 530.4C563.024 530.6 561.424 531.4 559.024 532.8C556.824 534.2 554.724 535.5 552.724 536.7C550.924 537.9 550.324 538.5 550.924 538.5H551.224C549.624 539.5 548.124 540.4 546.724 541.2C545.524 541.8 543.924 542.8 541.924 544.2C541.324 544.8 539.724 545.9 537.124 547.5C534.724 549.1 532.224 550.7 529.624 552.3C527.224 553.9 525.524 555 524.524 555.6C514.724 562.6 505.324 570.2 496.324 578.4C487.324 586.4 479.624 594.8 473.224 603.6C472.424 604.6 471.824 606 471.424 607.8C471.024 609.6 470.524 611.1 469.924 612.3C469.124 613.7 468.324 614.7 467.524 615.3C466.724 615.7 466.124 616.1 465.724 616.5C464.124 618.5 462.524 619.8 460.924 620.4C459.524 620.8 458.324 621 457.324 621ZM625.017 620.7C621.817 620.7 619.317 620.2 617.517 619.2C615.717 618 614.017 616.8 612.417 615.6C608.817 612.6 607.017 607.1 607.017 599.1C607.017 593.3 608.117 586.7 610.317 579.3C612.517 571.7 616.117 563.8 621.117 555.6V555.9C623.317 551.9 625.517 547.9 627.717 543.9C630.117 539.9 632.617 536 635.217 532.2C636.017 531.4 636.817 530.9 637.617 530.7C638.417 530.3 639.017 529.9 639.417 529.5C639.417 528.7 639.617 527.6 640.017 526.2C640.617 524.6 641.317 523.5 642.117 522.9C645.717 518.1 649.817 514.5 654.417 512.1C659.017 509.7 662.617 507.7 665.217 506.1H664.917C666.117 505.5 667.517 505.2 669.117 505.2C673.117 505.2 677.817 506.7 683.217 509.7C684.017 509.7 684.817 509.6 685.617 509.4C686.617 509 687.617 508.8 688.617 508.8C690.617 508.8 692.617 509.5 694.617 510.9C696.817 512.3 697.717 514.5 697.317 517.5C697.117 518.1 697.017 518.6 697.017 519C697.017 519.4 697.017 519.8 697.017 520.2C697.017 522.4 697.817 523.5 699.417 523.5C700.217 523.5 701.017 523.4 701.817 523.2C702.617 523 703.417 522.9 704.217 522.9C706.417 522.9 709.517 522.6 713.517 522C717.517 521.2 721.317 520.5 724.917 519.9C728.717 519.1 731.317 518.7 732.717 518.7C733.517 519.3 733.917 520 733.917 520.8C733.917 521.6 733.517 522.5 732.717 523.5C732.117 524.5 731.417 525.2 730.617 525.6C730.617 525.6 729.317 526 726.717 526.8C724.317 527.4 721.317 528.2 717.717 529.2C714.117 530.2 710.517 531.2 706.917 532.2C703.517 533 700.817 533.5 698.817 533.7L695.817 534C695.617 536.4 695.017 539 694.017 541.8C693.017 544.6 691.917 547.7 690.717 551.1C690.317 552.1 690.017 553.4 689.817 555C689.617 556.4 689.217 557.9 688.617 559.5C687.217 561.9 685.617 564.3 683.817 566.7C682.017 569.1 680.317 571.6 678.717 574.2C677.517 576.2 676.217 578.4 674.817 580.8C673.617 583 672.117 585.3 670.317 587.7C666.317 592.9 661.617 598.1 656.217 603.3C651.017 608.3 645.617 612.5 640.017 615.9C634.617 619.1 629.617 620.7 625.017 620.7ZM627.717 610.8C631.717 610.8 637.217 608 644.217 602.4C651.417 596.6 658.117 589.2 664.317 580.2H664.017C665.617 577.8 667.217 575 668.817 571.8C670.617 568.6 672.017 565.9 673.017 563.7C673.017 563.7 673.517 563.1 674.517 561.9C675.717 560.7 676.917 559.4 678.117 558C679.317 556.4 680.017 555.2 680.217 554.4C680.417 554 680.517 553.5 680.517 552.9C680.517 552.5 680.417 552.2 680.217 552C680.217 551.6 680.217 551 680.217 550.2V549.9C681.417 546.9 682.417 544.2 683.217 541.8C684.017 539.4 684.517 537.3 684.717 535.5C683.317 535.5 681.117 535.4 678.117 535.2C675.117 535 672.617 534.8 670.617 534.6C668.817 534.4 668.817 534.3 670.617 534.3H671.517C671.517 534.1 670.617 533.7 668.817 533.1C667.017 532.5 665.617 532 664.617 531.6C664.017 531.8 663.417 531.9 662.817 531.9C661.817 531.9 661.017 531.7 660.417 531.3C660.017 530.9 659.517 531 658.917 531.6C658.117 532.4 657.617 533.4 657.417 534.6C657.217 535.8 656.417 537.1 655.017 538.5L654.717 538.8C654.717 538.6 654.217 538.8 653.217 539.4C652.217 540 651.817 540.3 652.017 540.3L651.717 540.9C651.317 541.1 651.017 541.7 650.817 542.7C650.817 543.5 650.517 544.4 649.917 545.4C647.917 548.6 645.717 552 643.317 555.6C641.117 559 639.017 562.3 637.017 565.5V565.2C635.017 568.8 633.017 572.7 631.017 576.9C629.017 581.1 627.517 585.2 626.517 589.2C626.517 590.2 626.317 591.2 625.917 592.2C625.717 593 625.617 593.7 625.617 594.3V594.6C625.617 596.8 625.217 598.7 624.417 600.3C623.617 601.9 623.217 603.5 623.217 605.1C623.817 606.5 624.017 607.6 623.817 608.4C623.617 609 623.917 609.5 624.717 609.9C625.717 610.5 626.717 610.8 627.717 610.8ZM776.77 493.2C774.97 493.2 773.77 492.6 773.17 491.4C772.77 490 772.47 488.7 772.27 487.5C772.07 486.5 771.87 485.4 771.67 484.2C771.47 483 771.37 481.8 771.37 480.6C771.37 479 771.57 477.6 771.97 476.4C772.57 475 773.57 473.9 774.97 473.1C779.57 470.7 783.47 469 786.67 468C789.87 467 792.47 466.5 794.47 466.5C797.47 466.5 799.47 467.4 800.47 469.2C801.47 471 801.97 473.3 801.97 476.1C801.97 476.9 801.97 477.7 801.97 478.5C801.97 479.1 801.87 479.9 801.67 480.9C801.07 483.5 799.07 485.3 795.67 486.3C792.47 487.3 789.77 488.3 787.57 489.3C786.17 490.1 784.47 491 782.47 492C780.67 492.8 778.97 493.2 777.37 493.2H776.77ZM711.37 622.5C710.57 622.5 709.87 621.9 709.27 620.7C708.87 619.1 708.37 617.7 707.77 616.5C707.17 615.3 706.87 613.5 706.87 611.1C706.87 608.3 707.47 604.2 708.67 598.8C709.87 593.4 712.17 585.3 715.57 574.5C718.17 566.3 720.57 559.7 722.77 554.7C724.97 549.7 727.27 544.9 729.67 540.3V540C730.27 539.2 731.17 538.5 732.37 537.9C733.57 537.3 734.37 536.7 734.77 536.1H734.47C734.87 535.7 734.97 535.1 734.77 534.3C734.57 533.3 734.47 532.4 734.47 531.6C734.47 529.4 735.17 527.6 736.57 526.2C738.17 524.6 739.77 523.1 741.37 521.7C742.97 520.1 745.47 518.3 748.87 516.3C752.27 514.3 756.27 512.9 760.87 512.1C761.47 511.9 762.07 511.8 762.67 511.8C763.27 511.8 763.87 511.8 764.47 511.8C767.87 511.8 770.47 512.5 772.27 513.9C774.07 515.3 775.37 516.8 776.17 518.4C776.57 518.8 776.97 519.3 777.37 519.9C777.77 520.5 777.97 521.2 777.97 522C777.97 522.8 777.57 523.9 776.77 525.3C776.17 526.5 774.77 528.1 772.57 530.1C771.57 531.3 770.07 532.6 768.07 534C766.27 535.2 764.57 536.6 762.97 538.2C760.97 540.2 759.07 542.4 757.27 544.8C755.47 547.2 753.77 549.5 752.17 551.7C750.77 553.7 749.27 555.6 747.67 557.4C746.07 559 744.47 560.7 742.87 562.5C742.07 563.3 741.47 564.8 741.07 567C740.67 569 739.77 570.7 738.37 572.1C736.97 573.9 735.37 575.3 733.57 576.3C731.97 577.3 730.67 578.7 729.67 580.5V580.2C728.67 582 727.57 584.1 726.37 586.5C725.17 588.9 723.97 591.2 722.77 593.4C720.77 597.4 719.47 600.4 718.87 602.4C718.27 604.2 717.97 605.6 717.97 606.6C717.97 607.8 718.17 608.6 718.57 609C719.17 609.4 719.27 610.4 718.87 612C718.07 613.8 716.97 616 715.57 618.6C714.37 621.2 712.97 622.5 711.37 622.5ZM922.294 488.1C920.894 488.1 919.494 487.5 918.094 486.3C916.694 484.9 915.694 482.6 915.094 479.4C914.494 476.6 914.194 474 914.194 471.6C914.194 464.4 915.794 457.8 918.994 451.8C922.194 445.8 925.394 441.2 928.594 438C930.194 436.8 934.094 435.5 940.294 434.1C946.694 432.7 953.794 431.5 961.594 430.5C969.594 429.3 976.694 428.6 982.894 428.4C984.494 428.4 986.094 428.4 987.694 428.4C989.294 428.2 990.794 428.1 992.194 428.1C1003.99 428.1 1014.19 428.7 1022.79 429.9C1031.59 431.1 1039.69 432.2 1047.09 433.2C1051.09 433.8 1054.39 434.9 1056.99 436.5C1059.79 437.9 1061.89 439.5 1063.29 441.3C1065.29 444.7 1066.29 447.2 1066.29 448.8C1066.29 450.2 1065.39 450.9 1063.59 450.9C1061.19 450.9 1057.69 450 1053.09 448.2C1048.69 446.4 1045.09 445.5 1042.29 445.5C1036.09 443.9 1029.79 442.6 1023.39 441.6C1017.19 440.6 1011.39 439.8 1005.99 439.2C1003.59 438.8 1001.19 438.9 998.794 439.5C996.394 440.1 994.394 440.5 992.794 440.7C991.194 440.7 988.294 441 984.094 441.6C980.094 442 976.094 442.5 972.094 443.1C968.294 443.7 965.694 444.1 964.294 444.3C954.694 445.7 947.894 447.1 943.894 448.5C940.094 449.9 937.694 451.4 936.694 453C935.694 454.4 934.594 455.8 933.394 457.2C931.594 459.2 929.794 461.1 927.994 462.9C926.194 464.7 925.294 467.9 925.294 472.5C925.294 473.9 925.394 475.4 925.594 477C925.994 478.6 926.394 480.5 926.794 482.7V483.6C926.794 486.6 925.294 488.1 922.294 488.1ZM812.794 691.5C805.394 691.5 799.194 689.7 794.194 686.1C788.994 682.5 785.894 678.2 784.894 673.2C784.294 670.4 783.994 668.2 783.994 666.6C783.994 664 784.794 661.7 786.394 659.7C787.794 657.9 790.694 655.7 795.094 653.1C796.894 652.1 798.494 651.4 799.894 651C801.294 650.6 802.394 650.4 803.194 650.4C804.994 650.4 806.294 650.8 807.094 651.6C807.894 652.6 808.294 653.6 808.294 654.6C808.294 656.6 807.394 658.1 805.594 659.1C804.394 659.9 803.494 661.2 802.894 663C802.294 665 801.994 666.8 801.994 668.4C801.994 674.2 805.194 677.1 811.594 677.1C814.594 677.1 818.294 676.5 822.694 675.3C826.894 674.3 831.494 673 836.494 671.4C840.694 670 845.894 666.9 852.094 662.1C858.294 657.5 865.094 651.8 872.494 645C874.094 643.4 875.994 641.3 878.194 638.7C880.594 636.1 882.594 634 884.194 632.4C885.794 630.8 887.094 628.8 888.094 626.4C889.294 624 890.894 621.7 892.894 619.5C899.894 610.7 906.994 601.1 914.194 590.7C921.394 580.3 928.894 568.6 936.694 555.6C941.294 547.8 946.194 538.7 951.394 528.3C956.594 517.7 961.694 507.5 966.694 497.7C967.494 496.1 968.394 494.4 969.394 492.6C970.394 490.8 971.194 489.2 971.794 487.8C972.394 486.4 972.794 484.9 972.994 483.3C973.394 481.7 973.894 480.3 974.494 479.1C976.094 476.1 977.494 473.3 978.694 470.7C980.094 468.1 981.194 466.5 981.994 465.9C979.394 465.3 978.094 463.1 978.094 459.3C978.094 456.9 978.794 454.5 980.194 452.1C981.594 449.5 983.594 447.8 986.194 447C986.194 447 987.294 446.8 989.494 446.4C991.894 446 993.594 445.4 994.594 444.6C996.394 443.4 997.994 443.5 999.394 444.9C1000.99 446.3 1002.29 447.8 1003.29 449.4C1004.29 451 1004.79 451.7 1004.79 451.5C1008.59 451.9 1010.49 455 1010.49 460.8C1010.49 464 1009.79 467.3 1008.39 470.7C1007.59 472.1 1005.99 473.6 1003.59 475.2C1001.19 476.6 999.594 478 998.794 479.4C994.794 487.6 989.894 496.7 984.094 506.7C978.294 516.7 972.594 526.3 966.994 535.5C961.394 544.7 956.894 552.2 953.494 558C952.494 559.6 950.794 561.4 948.394 563.4C946.194 565.4 944.594 567.3 943.594 569.1C942.394 570.7 941.894 572.3 942.094 573.9C942.294 575.5 941.694 577.4 940.294 579.6H940.594C933.194 591 924.994 602.2 915.994 613.2C906.994 624 897.794 634.1 888.394 643.5C878.994 653.1 869.694 661.5 860.494 668.7C851.494 675.9 843.194 681.5 835.594 685.5C831.594 687.5 827.694 689 823.894 690C819.894 691 816.194 691.5 812.794 691.5ZM1018.71 628.8C1018.11 628.8 1016.81 628.4 1014.81 627.6C1012.81 627 1010.71 626.4 1008.51 625.8C1006.31 625.2 1004.71 624.9 1003.71 624.9H1003.41C999.613 624.9 996.713 623.4 994.713 620.4C992.913 617.2 991.713 614.3 991.113 611.7C990.913 610.7 990.713 609.7 990.513 608.7C990.513 607.5 990.513 606.3 990.513 605.1C990.513 598.5 992.113 591 995.313 582.6C998.513 574.2 1002.81 565.5 1008.21 556.5C1013.81 547.5 1020.11 539.1 1027.11 531.3C1034.31 523.1 1041.61 516.7 1049.01 512.1C1056.41 507.5 1063.11 504.9 1069.11 504.3C1072.31 504.3 1075.61 505.2 1079.01 507C1082.41 508.8 1084.81 509.7 1086.21 509.7H1086.51C1090.71 509.7 1093.51 511.4 1094.91 514.8C1096.31 518.2 1097.01 521.6 1097.01 525C1097.01 527 1096.61 529.1 1095.81 531.3C1095.01 533.5 1094.31 535.3 1093.71 536.7C1093.31 538.1 1093.31 538.6 1093.71 538.2L1094.01 537.9C1091.81 541.9 1089.31 546 1086.51 550.2C1083.91 554.2 1079.61 559.5 1073.61 566.1C1071.21 568.7 1067.91 571.3 1063.71 573.9C1059.71 576.3 1055.81 578.5 1052.01 580.5C1048.21 582.5 1045.51 583.9 1043.91 584.7C1042.31 585.5 1040.21 585.9 1037.61 585.9C1035.01 585.9 1032.11 585.6 1028.91 585C1025.91 584.4 1023.31 584.1 1021.11 584.1C1019.91 584.1 1018.81 584.2 1017.81 584.4C1016.81 584.6 1016.11 585.2 1015.71 586.2C1012.51 591.4 1010.91 596.6 1010.91 601.8C1010.91 605 1011.61 607.7 1013.01 609.9C1014.61 611.9 1017.21 612.9 1020.81 612.9C1022.01 612.9 1023.31 612.8 1024.71 612.6C1026.11 612.4 1027.51 612 1028.91 611.4C1032.31 610.8 1034.71 610.5 1036.11 610.5C1037.51 610.5 1039.01 610.3 1040.61 609.9C1042.41 609.5 1045.31 608.5 1049.31 606.9C1053.71 605.1 1057.01 603.8 1059.21 603C1061.61 602.2 1063.41 601.5 1064.61 600.9C1066.01 600.3 1067.41 599.6 1068.81 598.8C1070.21 598 1072.41 596.8 1075.41 595.2C1077.61 594 1078.81 593.4 1079.01 593.4C1079.41 593.4 1080.01 593.2 1080.81 592.8C1081.61 592.2 1083.71 590.8 1087.11 588.6C1090.71 586.2 1093.51 585 1095.51 585C1096.91 585 1097.61 585.5 1097.61 586.5C1097.61 587.3 1096.91 588.5 1095.51 590.1C1094.31 591.7 1092.11 593.6 1088.91 595.8C1085.51 598.2 1081.61 601 1077.21 604.2C1073.01 607.4 1069.11 609.9 1065.51 611.7C1064.31 611.9 1063.21 612.4 1062.21 613.2C1061.41 613.8 1060.21 614.3 1058.61 614.7L1041.81 621.9L1042.11 621.6C1042.71 621 1042.01 621 1040.01 621.6C1038.21 622.2 1035.81 623.1 1032.81 624.3C1030.01 625.5 1027.21 626.5 1024.41 627.3C1021.81 628.3 1019.91 628.8 1018.71 628.8ZM1030.41 577.2C1031.21 577.2 1032.01 577.2 1032.81 577.2C1033.61 577 1034.41 576.8 1035.21 576.6C1036.61 575.4 1037.91 574.5 1039.11 573.9C1040.31 573.3 1041.91 572.3 1043.91 570.9C1045.91 569.5 1048.71 567 1052.31 563.4C1055.31 560.4 1057.91 558.3 1060.11 557.1C1062.31 555.7 1064.11 554.2 1065.51 552.6C1069.71 546.8 1071.91 542.4 1072.11 539.4C1072.51 536.4 1072.71 533.6 1072.71 531C1070.31 527.8 1068.11 526.2 1066.11 526.2C1064.91 526.2 1063.11 526.7 1060.71 527.7C1057.31 529.1 1054.51 530.4 1052.31 531.6C1050.31 532.8 1047.31 535.4 1043.31 539.4C1038.71 544.2 1034.51 548.9 1030.71 553.5C1026.91 557.9 1023.91 562.4 1021.71 567C1021.51 567.8 1021.21 568.6 1020.81 569.4C1020.61 570 1020.51 570.5 1020.51 570.9C1020.51 573.1 1021.51 574.7 1023.51 575.7C1025.51 576.7 1027.81 577.2 1030.41 577.2ZM1108.86 624.6C1106.46 624.6 1104.46 623.9 1102.86 622.5C1101.26 621.1 1100.46 618.9 1100.46 615.9C1100.46 615.1 1100.56 614.3 1100.76 613.5C1100.76 612.7 1100.86 611.9 1101.06 611.1C1102.66 604.5 1105.36 596.7 1109.16 587.7C1112.96 578.7 1117.96 569.1 1124.16 558.9C1130.56 548.7 1138.46 538.7 1147.86 528.9C1154.86 521.7 1162.36 516.6 1170.36 513.6C1178.36 510.4 1186.86 508.8 1195.86 508.8H1196.16C1202.96 508.8 1207.46 510.6 1209.66 514.2C1211.86 517.6 1212.96 521.1 1212.96 524.7C1212.96 528.9 1212.36 532.2 1211.16 534.6L1210.86 534.9C1210.06 535.7 1209.06 536.1 1207.86 536.1C1206.86 536.1 1205.86 535.7 1204.86 534.9C1204.06 534.1 1203.66 533 1203.66 531.6C1203.66 529.6 1203.26 527.9 1202.46 526.5C1201.86 525.1 1201.06 523.9 1200.06 522.9C1199.86 522.5 1199.36 522.3 1198.56 522.3C1197.76 522.1 1196.86 522 1195.86 522H1195.56C1194.96 522 1194.36 521.9 1193.76 521.7C1193.16 521.3 1192.56 521.1 1191.96 521.1C1184.36 521.1 1174.96 526.4 1163.76 537C1152.36 548.2 1143.86 557.9 1138.26 566.1C1132.66 574.3 1128.76 581.4 1126.56 587.4C1124.56 593.2 1123.06 598.4 1122.06 603C1121.86 604.6 1122.36 605.4 1123.56 605.4C1125.76 605.4 1128.46 604.4 1131.66 602.4C1135.06 600.4 1138.56 598 1142.16 595.2C1145.76 592.4 1149.26 589.6 1152.66 586.8C1156.06 583.8 1158.76 581.4 1160.76 579.6C1161.76 578.6 1162.66 577.9 1163.46 577.5C1164.46 577.1 1165.26 576.6 1165.86 576C1166.86 575.2 1167.56 574.4 1167.96 573.6C1168.56 572.8 1169.26 572.1 1170.06 571.5C1177.26 565.3 1183.06 560.4 1187.46 556.8C1191.86 553 1195.26 550 1197.66 547.8C1200.26 545.6 1202.46 543.7 1204.26 542.1C1206.86 539.5 1209.76 538.2 1212.96 538.2C1217.56 538.2 1220.46 540.7 1221.66 545.7C1222.46 548.5 1221.76 550.5 1219.56 551.7C1217.36 552.7 1215.76 553.9 1214.76 555.3C1213.16 557.3 1211.46 560.3 1209.66 564.3C1207.86 568.1 1205.46 572.7 1202.46 578.1C1200.66 581.5 1199.06 585.3 1197.66 589.5C1196.46 593.5 1196.06 596.5 1196.46 598.5L1201.56 595.2C1204.16 594 1206.96 593 1209.96 592.2C1212.96 591.2 1215.46 590 1217.46 588.6C1218.86 587.8 1220.06 587.4 1221.06 587.4C1222.66 587.4 1223.46 588.1 1223.46 589.5C1223.46 591.1 1222.26 592.7 1219.86 594.3C1214.06 598.5 1209.46 601.5 1206.06 603.3C1202.66 604.9 1199.06 607.6 1195.26 611.4C1194.46 612.2 1192.76 614.1 1190.16 617.1C1187.76 619.9 1186.06 621.6 1185.06 622.2C1184.26 622.6 1183.36 622.8 1182.36 622.8C1181.56 623 1180.76 623.1 1179.96 623.1C1177.16 623.1 1175.46 622.8 1174.86 622.2C1174.46 621.8 1173.86 621.4 1173.06 621C1172.46 620.8 1171.96 620.2 1171.56 619.2C1171.16 617.6 1170.96 616.2 1170.96 615C1170.96 611.4 1171.86 607.2 1173.66 602.4C1175.66 597.4 1178.26 591.9 1181.46 585.9C1184.06 580.9 1185.96 577 1187.16 574.2C1188.36 571.4 1189.26 569.1 1189.86 567.3C1190.46 565.3 1191.16 563.4 1191.96 561.6C1189.16 564.2 1186.26 566.9 1183.26 569.7C1180.26 572.5 1176.76 575.6 1172.76 579C1172.16 579.4 1171.36 580 1170.36 580.8C1169.36 581.4 1168.66 581.8 1168.26 582L1160.16 589.5C1154.56 593.9 1149.56 598 1145.16 601.8C1140.76 605.6 1136.26 609.2 1131.66 612.6C1127.06 616 1121.56 619.5 1115.16 623.1C1112.76 624.1 1110.66 624.6 1108.86 624.6ZM1236.04 621C1234.24 620.4 1233.34 618.3 1233.34 614.7C1233.34 612.5 1233.64 610 1234.24 607.2C1235.04 604.4 1236.14 601.1 1237.54 597.3V597.6C1237.74 596.6 1238.04 595.8 1238.44 595.2C1239.04 594.4 1239.24 593.9 1239.04 593.7C1239.24 592.5 1240.04 591.2 1241.44 589.8C1243.04 588.2 1243.74 587.3 1243.54 587.1V586.8C1243.94 586 1243.94 585.5 1243.54 585.3C1243.14 585.1 1243.24 584.3 1243.84 582.9C1246.04 578.3 1248.04 574.1 1249.84 570.3C1251.64 566.3 1253.44 562.7 1255.24 559.5C1255.24 559.5 1255.44 558.8 1255.84 557.4C1256.24 556 1256.74 554.7 1257.34 553.5V554.1C1257.54 553.3 1257.94 552.6 1258.54 552C1259.34 551.2 1259.84 550.7 1260.04 550.5C1260.84 548.3 1261.44 546.7 1261.84 545.7C1262.44 544.7 1263.14 543.2 1263.94 541.2C1264.34 540.2 1264.84 539.2 1265.44 538.2C1266.04 537.2 1267.04 535.7 1268.44 533.7C1268.44 533.7 1268.44 533.1 1268.44 531.9C1268.64 530.7 1268.84 529.4 1269.04 528C1269.44 527 1270.04 526 1270.84 525C1271.84 524 1272.34 523.5 1272.34 523.5C1273.94 520.3 1276.44 517.9 1279.84 516.3C1283.44 514.5 1286.84 513.6 1290.04 513.6C1293.44 513.6 1296.24 514.5 1298.44 516.3C1300.84 517.9 1302.04 520.4 1302.04 523.8C1302.04 528.2 1300.84 531.6 1298.44 534C1296.24 536.4 1293.74 538.4 1290.94 540C1289.74 540.8 1287.74 542 1284.94 543.6C1282.34 545.2 1280.74 546.5 1280.14 547.5C1279.54 548.3 1279.24 548.9 1279.24 549.3C1279.24 549.5 1279.24 549.8 1279.24 550.2C1279.24 550.4 1279.04 551 1278.64 552C1277.04 554.6 1275.84 557.1 1275.04 559.5C1274.44 561.7 1274.04 564 1273.84 566.4C1274.64 565.4 1275.54 564.5 1276.54 563.7C1280.74 559.5 1285.44 555.7 1290.64 552.3C1296.04 548.7 1302.84 544.4 1311.04 539.4H1311.64C1311.84 539.4 1313.14 538.5 1315.54 536.7C1318.14 534.9 1320.74 533.1 1323.34 531.3C1326.14 529.3 1327.84 528.3 1328.44 528.3C1328.44 528.3 1329.64 527.7 1332.04 526.5C1334.44 525.3 1336.94 524.3 1339.54 523.5C1348.34 520.5 1355.94 519 1362.34 519C1366.94 519 1370.34 519.8 1372.54 521.4C1374.34 522.6 1375.24 525 1375.24 528.6C1375.24 531.2 1374.64 534.2 1373.44 537.6V537.3C1373.44 538.1 1373.14 539 1372.54 540C1371.94 540.8 1371.24 541.8 1370.44 543C1370.04 543.6 1369.34 544.7 1368.34 546.3C1367.34 547.9 1366.74 548.9 1366.54 549.3V549C1365.34 551.2 1364.54 552.8 1364.14 553.8C1363.94 554.8 1363.44 556.4 1362.64 558.6C1361.84 560.6 1360.94 562.2 1359.94 563.4C1358.94 564.4 1358.34 565.8 1358.14 567.6L1363.54 563.7C1368.14 559.7 1372.94 555.9 1377.94 552.3C1383.14 548.7 1389.94 544.4 1398.34 539.4H1398.64C1398.84 539.4 1400.14 538.5 1402.54 536.7C1405.14 534.9 1407.84 533.1 1410.64 531.3C1413.44 529.3 1415.14 528.3 1415.74 528.3H1415.44C1416.64 527.7 1418.14 527 1419.94 526.2C1421.74 525.2 1423.94 524.3 1426.54 523.5C1435.34 520.5 1442.94 519 1449.34 519C1453.74 519 1457.24 519.8 1459.84 521.4C1461.44 523 1462.24 525.3 1462.24 528.3C1462.24 530.9 1461.64 534 1460.44 537.6V537.3C1460.44 538.1 1460.14 539 1459.54 540C1458.94 540.8 1458.24 541.8 1457.44 543C1457.04 543.6 1456.34 544.7 1455.34 546.3C1454.34 547.9 1453.74 548.9 1453.54 549.3V549C1452.34 551.2 1451.24 552.9 1450.24 554.1C1449.44 555.1 1448.24 556.5 1446.64 558.3C1444.84 560.7 1442.14 564.4 1438.54 569.4C1435.14 574.2 1431.84 579.4 1428.64 585C1425.64 590.4 1423.64 595.3 1422.64 599.7C1422.44 600.9 1422.04 602.3 1421.44 603.9C1421.04 605.3 1420.94 606.5 1421.14 607.5V607.8C1421.14 608.2 1421.54 608.8 1422.34 609.6C1423.14 610.2 1423.74 610.7 1424.14 611.1C1424.94 612.3 1425.34 613.2 1425.34 613.8C1425.34 615 1424.64 616.1 1423.24 617.1C1421.84 617.9 1419.54 618.1 1416.34 617.7C1413.94 617.7 1412.34 617.1 1411.54 615.9C1410.94 614.7 1410.24 613.4 1409.44 612V611.7C1409.44 611.3 1409.34 610.9 1409.14 610.5C1409.14 610.1 1409.14 609.5 1409.14 608.7C1409.54 608.3 1409.34 608.1 1408.54 608.1C1407.94 607.9 1407.24 607.1 1406.44 605.7C1406.44 605.7 1406.24 604.7 1405.84 602.7C1405.64 600.7 1405.54 599.3 1405.54 598.5C1405.54 596.5 1406.24 594.1 1407.64 591.3C1409.04 588.3 1410.14 585.7 1410.94 583.5C1411.94 581.3 1413.64 578.2 1416.04 574.2C1418.44 570.2 1420.94 566.1 1423.54 561.9C1426.34 557.7 1428.64 554.1 1430.44 551.1C1433.84 545.3 1436.54 540.9 1438.54 537.9C1440.74 534.9 1440.74 533.8 1438.54 534.6C1437.74 534.6 1435.44 534.9 1431.64 535.5C1427.84 536.1 1425.14 536.8 1423.54 537.6C1422.54 538 1420.94 538.7 1418.74 539.7C1416.54 540.7 1414.44 541.6 1412.44 542.4C1410.44 543.2 1409.14 543.6 1408.54 543.6C1408.54 543.6 1407.44 544.3 1405.24 545.7C1403.24 546.9 1401.34 548.2 1399.54 549.6C1398.34 550.4 1396.84 551.4 1395.04 552.6C1393.24 553.6 1391.74 554.6 1390.54 555.6C1380.74 562.6 1371.24 570.2 1362.04 578.4C1353.04 586.4 1345.34 594.8 1338.94 603.6C1338.14 604.6 1337.54 606 1337.14 607.8C1336.74 609.6 1336.24 611.1 1335.64 612.3C1335.04 613.7 1334.24 614.7 1333.24 615.3C1332.44 615.7 1331.84 616.1 1331.44 616.5C1330.04 618.5 1328.54 619.8 1326.94 620.4C1325.34 620.8 1324.04 621 1323.04 621C1321.24 620.4 1320.34 618.3 1320.34 614.7C1320.34 612.5 1320.64 610 1321.24 607.2C1322.04 604.4 1323.14 601.1 1324.54 597.3V597.6C1324.74 596.6 1325.14 595.8 1325.74 595.2C1326.34 594.4 1326.54 593.9 1326.34 593.7C1326.54 592.5 1327.34 591.2 1328.74 589.8C1330.14 588.2 1330.74 587.3 1330.54 587.1V586.8C1331.14 586 1331.24 585.5 1330.84 585.3C1330.44 585.1 1330.44 584.3 1330.84 582.9C1333.04 578.3 1335.04 574.1 1336.84 570.3C1338.64 566.3 1340.54 562.7 1342.54 559.5L1344.94 554.4V555C1344.94 554.2 1345.24 552.6 1345.84 550.2C1346.64 547.6 1347.04 546.3 1347.04 546.3V545.7C1349.24 541.9 1350.34 539 1350.34 537C1350.34 535.6 1349.74 534.8 1348.54 534.6C1347.54 534.2 1346.14 533.9 1344.34 533.7C1343.34 533.7 1341.84 533.8 1339.84 534C1338.04 534.2 1336.24 534.7 1334.44 535.5C1333.64 535.7 1332.24 536.5 1330.24 537.9C1328.44 539.3 1326.64 540.6 1324.84 541.8C1323.04 543 1321.84 543.6 1321.24 543.6H1321.54C1319.94 544.6 1318.44 545.5 1317.04 546.3C1315.84 547.1 1314.34 548.2 1312.54 549.6L1303.24 555.6C1293.44 562.6 1284.04 570.2 1275.04 578.4C1266.04 586.4 1258.34 594.8 1251.94 603.6C1251.14 604.6 1250.54 606 1250.14 607.8C1249.74 609.6 1249.24 611.1 1248.64 612.3C1247.84 613.7 1247.04 614.7 1246.24 615.3C1245.44 615.7 1244.84 616.1 1244.44 616.5C1242.84 618.5 1241.24 619.8 1239.64 620.4C1238.24 620.8 1237.04 621 1236.04 621ZM1532.04 493.2C1530.24 493.2 1529.04 492.6 1528.44 491.4C1528.04 490 1527.74 488.7 1527.54 487.5C1527.34 486.5 1527.14 485.4 1526.94 484.2C1526.74 483 1526.64 481.8 1526.64 480.6C1526.64 479 1526.84 477.6 1527.24 476.4C1527.84 475 1528.84 473.9 1530.24 473.1C1534.84 470.7 1538.74 469 1541.94 468C1545.14 467 1547.74 466.5 1549.74 466.5C1552.74 466.5 1554.74 467.4 1555.74 469.2C1556.74 471 1557.24 473.3 1557.24 476.1C1557.24 476.9 1557.24 477.7 1557.24 478.5C1557.24 479.1 1557.14 479.9 1556.94 480.9C1556.34 483.5 1554.34 485.3 1550.94 486.3C1547.74 487.3 1545.04 488.3 1542.84 489.3C1541.44 490.1 1539.74 491 1537.74 492C1535.94 492.8 1534.24 493.2 1532.64 493.2H1532.04ZM1466.64 622.5C1465.84 622.5 1465.14 621.9 1464.54 620.7C1464.14 619.1 1463.64 617.7 1463.04 616.5C1462.44 615.3 1462.14 613.5 1462.14 611.1C1462.14 608.3 1462.74 604.2 1463.94 598.8C1465.14 593.4 1467.44 585.3 1470.84 574.5C1473.44 566.3 1475.84 559.7 1478.04 554.7C1480.24 549.7 1482.54 544.9 1484.94 540.3V540C1485.54 539.2 1486.44 538.5 1487.64 537.9C1488.84 537.3 1489.64 536.7 1490.04 536.1H1489.74C1490.14 535.7 1490.24 535.1 1490.04 534.3C1489.84 533.3 1489.74 532.4 1489.74 531.6C1489.74 529.4 1490.44 527.6 1491.84 526.2C1493.44 524.6 1495.04 523.1 1496.64 521.7C1498.24 520.1 1500.74 518.3 1504.14 516.3C1507.54 514.3 1511.54 512.9 1516.14 512.1C1516.74 511.9 1517.34 511.8 1517.94 511.8C1518.54 511.8 1519.14 511.8 1519.74 511.8C1523.14 511.8 1525.74 512.5 1527.54 513.9C1529.34 515.3 1530.64 516.8 1531.44 518.4C1531.84 518.8 1532.24 519.3 1532.64 519.9C1533.04 520.5 1533.24 521.2 1533.24 522C1533.24 522.8 1532.84 523.9 1532.04 525.3C1531.44 526.5 1530.04 528.1 1527.84 530.1C1526.84 531.3 1525.34 532.6 1523.34 534C1521.54 535.2 1519.84 536.6 1518.24 538.2C1516.24 540.2 1514.34 542.4 1512.54 544.8C1510.74 547.2 1509.04 549.5 1507.44 551.7C1506.04 553.7 1504.54 555.6 1502.94 557.4C1501.34 559 1499.74 560.7 1498.14 562.5C1497.34 563.3 1496.74 564.8 1496.34 567C1495.94 569 1495.04 570.7 1493.64 572.1C1492.24 573.9 1490.64 575.3 1488.84 576.3C1487.24 577.3 1485.94 578.7 1484.94 580.5V580.2C1483.94 582 1482.84 584.1 1481.64 586.5C1480.44 588.9 1479.24 591.2 1478.04 593.4C1476.04 597.4 1474.74 600.4 1474.14 602.4C1473.54 604.2 1473.24 605.6 1473.24 606.6C1473.24 607.8 1473.44 608.6 1473.84 609C1474.44 609.4 1474.54 610.4 1474.14 612C1473.34 613.8 1472.24 616 1470.84 618.6C1469.64 621.2 1468.24 622.5 1466.64 622.5ZM1524.02 621C1522.22 620.4 1521.32 618.3 1521.32 614.7C1521.32 612.5 1521.62 610 1522.22 607.2C1523.02 604.4 1524.12 601.1 1525.52 597.3V598.2C1525.92 598.2 1526.32 597.5 1526.72 596.1C1527.12 594.7 1527.22 593.9 1527.02 593.7C1527.22 592.5 1528.02 591.2 1529.42 589.8C1531.02 588.2 1531.72 587.3 1531.52 587.1V586.8C1531.92 586 1531.92 585.5 1531.52 585.3C1531.12 585.1 1531.22 584.3 1531.82 582.9C1534.02 578.3 1536.02 574.1 1537.82 570.3C1539.62 566.3 1541.42 562.7 1543.22 559.5C1543.22 559.5 1543.42 558.8 1543.82 557.4C1544.22 556 1544.72 554.7 1545.32 553.5V554.1C1545.52 553.3 1546.02 552.6 1546.82 552C1547.62 551.2 1548.12 550.7 1548.32 550.5C1549.32 548.7 1549.82 547.4 1549.82 546.6C1549.82 546.2 1549.72 546 1549.52 546C1549.32 546 1549.22 545.9 1549.22 545.7C1549.22 545.5 1549.42 545.1 1549.82 544.5C1550.22 543.7 1551.02 542.5 1552.22 540.9H1551.92C1552.72 539.9 1553.92 538.1 1555.52 535.5C1557.32 532.9 1559.02 530.3 1560.62 527.7C1562.42 525.1 1563.52 523.4 1563.92 522.6C1565.52 519.2 1568.02 516.7 1571.42 515.1C1575.02 513.3 1578.52 512.4 1581.92 512.4C1585.12 512.4 1587.82 513.2 1590.02 514.8C1592.42 516.2 1593.62 518.6 1593.62 522C1593.62 525.2 1592.82 527.4 1591.22 528.6C1589.82 529.8 1587.82 531.1 1585.22 532.5C1582.82 533.7 1580.12 535.9 1577.12 539.1C1571.32 545.3 1567.42 550.4 1565.42 554.4C1563.42 558.2 1562.22 562.2 1561.82 566.4C1562.62 565.4 1563.52 564.5 1564.52 563.7C1568.72 559.5 1573.42 555.7 1578.62 552.3C1584.02 548.7 1590.82 544.4 1599.02 539.4H1599.62C1599.82 539.4 1601.12 538.5 1603.52 536.7C1606.12 534.9 1608.72 533.1 1611.32 531.3C1614.12 529.3 1615.82 528.3 1616.42 528.3C1616.42 528.3 1617.62 527.7 1620.02 526.5C1622.42 525.3 1624.92 524.3 1627.52 523.5C1636.32 520.5 1643.92 519 1650.32 519C1654.92 519 1658.32 519.8 1660.52 521.4C1662.32 522.6 1663.22 525 1663.22 528.6C1663.22 531.2 1662.62 534.2 1661.42 537.6V537C1661.22 537 1660.82 537.8 1660.22 539.4C1659.62 540.8 1659.02 542 1658.42 543C1658.02 543.6 1657.32 544.7 1656.32 546.3C1655.32 547.9 1654.72 548.9 1654.52 549.3V549C1653.32 551.2 1652.22 552.9 1651.22 554.1C1650.22 555.1 1649.02 556.5 1647.62 558.3C1645.62 560.7 1642.92 564.4 1639.52 569.4C1636.12 574.2 1632.82 579.4 1629.62 585C1626.62 590.4 1624.62 595.3 1623.62 599.7C1623.42 600.9 1623.02 602.3 1622.42 603.9C1622.02 605.3 1621.92 606.5 1622.12 607.5V607.8C1622.12 608.2 1622.52 608.8 1623.32 609.6C1624.12 610.2 1624.62 610.7 1624.82 611.1C1625.62 611.9 1626.02 612.8 1626.02 613.8C1626.02 615 1625.32 616.1 1623.92 617.1C1622.72 617.9 1620.42 618.1 1617.02 617.7C1614.82 617.7 1613.32 617.1 1612.52 615.9C1611.92 614.7 1611.22 613.4 1610.42 612V611.7C1610.42 611.3 1610.32 610.9 1610.12 610.5C1610.12 610.1 1610.12 609.5 1610.12 608.7C1610.32 608.3 1610.02 608.1 1609.22 608.1C1608.62 607.9 1607.92 607.1 1607.12 605.7C1607.12 605.7 1607.02 604.7 1606.82 602.7C1606.62 600.7 1606.52 599.3 1606.52 598.5C1606.52 596.5 1607.22 594.1 1608.62 591.3C1610.02 588.3 1611.12 585.7 1611.92 583.5C1612.92 581.3 1615.02 578.1 1618.22 573.9C1621.42 569.7 1624.72 565.4 1628.12 561C1631.72 556.4 1634.42 552.6 1636.22 549.6C1638.22 546.2 1639.22 543.2 1639.22 540.6C1639.22 538.2 1638.52 536.5 1637.12 535.5C1635.72 534.3 1634.12 533.7 1632.32 533.7C1631.32 533.7 1629.82 533.8 1627.82 534C1626.02 534.2 1624.22 534.7 1622.42 535.5C1621.62 535.7 1620.22 536.5 1618.22 537.9C1616.42 539.3 1614.62 540.6 1612.82 541.8C1611.02 543 1609.82 543.6 1609.22 543.6C1607.82 544.6 1606.52 545.6 1605.32 546.6C1604.12 547.4 1602.52 548.4 1600.52 549.6L1591.22 555.6C1581.22 562 1571.72 569.4 1562.72 577.8C1553.92 586.2 1546.32 594.8 1539.92 603.6C1539.12 604.6 1538.52 606 1538.12 607.8C1537.72 609.6 1537.22 611.1 1536.62 612.3C1535.82 613.7 1535.02 614.7 1534.22 615.3C1533.42 615.7 1532.82 616.1 1532.42 616.5C1530.82 618.5 1529.22 619.8 1527.62 620.4C1526.22 620.8 1525.02 621 1524.02 621Z" fill="white"/>
<defs>
<clipPath id="clip0_1_3">
<rect width="968" height="771" fill="white" transform="translate(476 155)"/>
</clipPath>
</defs>
</svg>
