<?xml version="1.0" encoding="utf-8"?>
<!-- Generator: Adobe Illustrator 27.6.1, SVG Export Plug-In . SVG Version: 6.00 Build 0)  -->
<svg version="1.1" id="레이어_1" xmlns="http://www.w3.org/2000/svg" xmlns:xlink="http://www.w3.org/1999/xlink" x="0px"
	 y="0px" viewBox="0 0 400 400" style="enable-background:new 0 0 400 400;" xml:space="preserve">
<style type="text/css">
	.st0{fill:#F5BF4E;}
	.st1{fill:#6380FD;}
</style>
<g>
	<g>
		<path class="st0" d="M75.8,349.4l44-80l-33.1-60l-51.9,97c-0.4,1.2-5.4,18.2,6,32C49.1,348.5,62.8,352.8,75.8,349.4z"/>
		<path class="st0" d="M123.8,138.4l41-71c1.7-2.1,15.2-18.1,38-18c22.6,0.1,36,15.9,37.7,18c41.1,76.7,82.2,153.3,123.3,230
			c0.5,1.2,7.8,18.8-3,35c-7.4,11.1-20.5,17.3-34,16c-41.7-76.7-83.3-153.3-125-230l-43.5,81L123.8,138.4z"/>
	</g>
	<g>
		<path class="st1" d="M73.8,159.4l95,175c0.9,1.3,11.5,15.4,30,15c17.5-0.4,27.3-13.5,28.4-15c13.2-24.7,26.4-49.3,39.6-74l-24-43
			l-43,81l-98-175c-1.6,0-14.7,0.7-23,12C71,146,73.4,157.7,73.8,159.4z"/>
		<path class="st1" d="M287.8,133.4l25,44l12.5-22c2.7-14.5-3.4-27.6-13.5-32c-7.1-3.1-14.2-1-17,0
			C292.5,126.8,290.1,130.1,287.8,133.4z"/>
	</g>
</g>
</svg>
